# xmcd
#
# Track frame offsets:
#	150
#	16297
#	32532
#	52057
#	63407
#	77765
#	93600
#	113930
#	138282
#	154140
#	171157
#	188320
#	205280
#	221125
#
# Disc length: 3179 seconds
#
# Revision: 1
# Processed by: cddbd v1.5.2PL0 Copyright (c) Steve Scherf et al.
# Submitted via: audiograbber 1.83.01
#
DISCID=bf0c690e
DTITLE=Various Artist - SD-P062  Country Hits - Today -
DYEAR=1900
DGENRE=Country
TTITLE0=Dixie Chicks - Tonight The Heartache's On Me
TTITLE1=George Strait - Write This Down
TTITLE2=Trisha Yearwood - I'll Still Love You More
TTITLE3=John Michael Montgomery - Hello L.O.V.E.
TTITLE4=Sara Evans - Fool I'm A Woman
TTITLE5=Mark Chesnut - This Heartache Never Sleeps
TTITLE6=Alan Jackson - Little Man
TTITLE7=Deana Carter - Angels Working Overtime
TTITLE8=Joe Diffie - A Night To Remember
TTITLE9=Billy Ray Cyrus - Give My Heart To You
TTITLE10=Brooks and Dunn - South Of Santa Fe
TTITLE11=Brad Paisley - Who Needs Pictures
TTITLE12=Sons Of The Desert - What About You
TTITLE13=Kenny Chesney - You Had Me From Hello
EXTD=MediaType: Karaoke CD+G Producer: StarDisc
EXTT0=
EXTT1=
EXTT2=
EXTT3=
EXTT4=
EXTT5=
EXTT6=
EXTT7=
EXTT8=
EXTT9=
EXTT10=
EXTT11=
EXTT12=
EXTT13=
PLAYORDER=
